<mxfile host="app.diagrams.net" modified="2020-08-04T09:45:50.576Z" agent="5.0 (Macintosh; Intel Mac OS X 10_14_6) AppleWebKit/537.36 (KHTML, like Gecko) Chrome/84.0.4147.105 Safari/537.36" etag="SxArk6Jv1FEcmBPO4wu4" version="13.5.9" type="github">
  <diagram id="fMH37jqwa5DAqy2-OgGY" name="Page-1">
    <mxGraphModel dx="946" dy="613" grid="1" gridSize="10" guides="1" tooltips="1" connect="1" arrows="1" fold="1" page="1" pageScale="1" pageWidth="583" pageHeight="827" math="0" shadow="0">
      <root>
        <mxCell id="0" />
        <mxCell id="1" parent="0" />
        <mxCell id="6sF-m4O3xJEebA5fXuFb-1" value="&lt;h1&gt;&lt;div style=&quot;color: rgb(197 , 200 , 198) ; background-color: rgb(29 , 31 , 33) ; font-family: &amp;#34;menlo&amp;#34; , &amp;#34;monaco&amp;#34; , &amp;#34;courier new&amp;#34; , monospace ; font-weight: normal ; font-size: 12px ; line-height: 18px&quot;&gt;&lt;div&gt;function foo() {}&lt;/div&gt;&lt;div&gt;    let f1 = new foo();&lt;/div&gt;&lt;/div&gt;&lt;/h1&gt;" style="text;html=1;strokeColor=none;fillColor=none;spacing=5;spacingTop=-20;whiteSpace=wrap;overflow=hidden;rounded=0;" parent="1" vertex="1">
          <mxGeometry x="20" y="30" width="190" height="120" as="geometry" />
        </mxCell>
        <mxCell id="6sF-m4O3xJEebA5fXuFb-3" value="f1" style="ellipse;whiteSpace=wrap;html=1;fillColor=#e1d5e7;strokeColor=#9673a6;" parent="1" vertex="1">
          <mxGeometry x="20" y="150" width="80" height="50" as="geometry" />
        </mxCell>
        <mxCell id="6sF-m4O3xJEebA5fXuFb-4" value="Object.prototype" style="ellipse;whiteSpace=wrap;html=1;fillColor=#e1d5e7;strokeColor=#9673a6;" parent="1" vertex="1">
          <mxGeometry x="15" y="500" width="90" height="70" as="geometry" />
        </mxCell>
        <mxCell id="6sF-m4O3xJEebA5fXuFb-5" value="Foo" style="ellipse;whiteSpace=wrap;html=1;fillColor=#d5e8d4;strokeColor=#82b366;" parent="1" vertex="1">
          <mxGeometry x="230" y="150" width="80" height="50" as="geometry" />
        </mxCell>
        <mxCell id="6sF-m4O3xJEebA5fXuFb-6" value="f1" style="ellipse;whiteSpace=wrap;html=1;" parent="1" vertex="1">
          <mxGeometry x="470" y="330" width="80" height="50" as="geometry" />
        </mxCell>
        <mxCell id="6sF-m4O3xJEebA5fXuFb-7" value="Function.prototype" style="ellipse;whiteSpace=wrap;html=1;fillColor=#e1d5e7;strokeColor=#9673a6;" parent="1" vertex="1">
          <mxGeometry x="200" y="300" width="110" height="60" as="geometry" />
        </mxCell>
        <mxCell id="6sF-m4O3xJEebA5fXuFb-8" value="Foo.prototype" style="ellipse;whiteSpace=wrap;html=1;fillColor=#e1d5e7;strokeColor=#9673a6;" parent="1" vertex="1">
          <mxGeometry x="20" y="300" width="80" height="50" as="geometry" />
        </mxCell>
        <mxCell id="6sF-m4O3xJEebA5fXuFb-9" value="Function" style="ellipse;whiteSpace=wrap;html=1;fillColor=#d5e8d4;strokeColor=#82b366;" parent="1" vertex="1">
          <mxGeometry x="470" y="150" width="80" height="50" as="geometry" />
        </mxCell>
        <mxCell id="6sF-m4O3xJEebA5fXuFb-11" value="" style="curved=1;endArrow=classic;html=1;entryX=0.25;entryY=0;entryDx=0;entryDy=0;entryPerimeter=0;" parent="1" target="6sF-m4O3xJEebA5fXuFb-5" edge="1">
          <mxGeometry width="50" height="50" relative="1" as="geometry">
            <mxPoint x="100" y="170" as="sourcePoint" />
            <mxPoint x="150" y="120" as="targetPoint" />
            <Array as="points">
              <mxPoint x="150" y="170" />
              <mxPoint x="100" y="120" />
            </Array>
          </mxGeometry>
        </mxCell>
        <mxCell id="6sF-m4O3xJEebA5fXuFb-12" value="constuctor" style="text;html=1;strokeColor=none;fillColor=none;align=center;verticalAlign=middle;whiteSpace=wrap;rounded=0;" parent="1" vertex="1">
          <mxGeometry x="150" y="110" width="40" height="20" as="geometry" />
        </mxCell>
        <mxCell id="6sF-m4O3xJEebA5fXuFb-13" value="" style="endArrow=classic;html=1;exitX=0.588;exitY=0.98;exitDx=0;exitDy=0;exitPerimeter=0;entryX=0.5;entryY=0;entryDx=0;entryDy=0;" parent="1" source="6sF-m4O3xJEebA5fXuFb-3" target="6sF-m4O3xJEebA5fXuFb-8" edge="1">
          <mxGeometry width="50" height="50" relative="1" as="geometry">
            <mxPoint x="310" y="380" as="sourcePoint" />
            <mxPoint x="360" y="330" as="targetPoint" />
          </mxGeometry>
        </mxCell>
        <mxCell id="6sF-m4O3xJEebA5fXuFb-14" value="__proto__" style="text;html=1;strokeColor=none;fillColor=none;align=center;verticalAlign=middle;whiteSpace=wrap;rounded=0;" parent="1" vertex="1">
          <mxGeometry x="30" y="220" width="40" height="20" as="geometry" />
        </mxCell>
        <mxCell id="6sF-m4O3xJEebA5fXuFb-15" value="" style="curved=1;endArrow=classic;html=1;entryX=0.363;entryY=0.96;entryDx=0;entryDy=0;entryPerimeter=0;exitX=1;exitY=0.5;exitDx=0;exitDy=0;" parent="1" source="6sF-m4O3xJEebA5fXuFb-7" target="6sF-m4O3xJEebA5fXuFb-9" edge="1">
          <mxGeometry width="50" height="50" relative="1" as="geometry">
            <mxPoint x="310" y="420" as="sourcePoint" />
            <mxPoint x="360" y="370" as="targetPoint" />
            <Array as="points">
              <mxPoint x="410" y="290" />
              <mxPoint x="310" y="370" />
            </Array>
          </mxGeometry>
        </mxCell>
        <mxCell id="6sF-m4O3xJEebA5fXuFb-16" value="constuctor" style="text;html=1;strokeColor=none;fillColor=none;align=center;verticalAlign=middle;whiteSpace=wrap;rounded=0;" parent="1" vertex="1">
          <mxGeometry x="420" y="240" width="40" height="20" as="geometry" />
        </mxCell>
        <mxCell id="6sF-m4O3xJEebA5fXuFb-17" value="" style="endArrow=classic;html=1;exitX=0.413;exitY=1.1;exitDx=0;exitDy=0;exitPerimeter=0;entryX=0.5;entryY=0;entryDx=0;entryDy=0;" parent="1" source="6sF-m4O3xJEebA5fXuFb-18" target="6sF-m4O3xJEebA5fXuFb-4" edge="1">
          <mxGeometry width="50" height="50" relative="1" as="geometry">
            <mxPoint x="310" y="420" as="sourcePoint" />
            <mxPoint x="360" y="370" as="targetPoint" />
          </mxGeometry>
        </mxCell>
        <mxCell id="6sF-m4O3xJEebA5fXuFb-18" value="__proto__" style="text;html=1;strokeColor=none;fillColor=none;align=center;verticalAlign=middle;whiteSpace=wrap;rounded=0;" parent="1" vertex="1">
          <mxGeometry x="40" y="394" width="40" height="20" as="geometry" />
        </mxCell>
        <mxCell id="6sF-m4O3xJEebA5fXuFb-19" value="" style="endArrow=classic;html=1;exitX=0.413;exitY=1.1;exitDx=0;exitDy=0;exitPerimeter=0;entryX=0.5;entryY=0;entryDx=0;entryDy=0;" parent="1" source="6sF-m4O3xJEebA5fXuFb-8" target="6sF-m4O3xJEebA5fXuFb-18" edge="1">
          <mxGeometry width="50" height="50" relative="1" as="geometry">
            <mxPoint x="53.039999999999964" y="355" as="sourcePoint" />
            <mxPoint x="60" y="470" as="targetPoint" />
          </mxGeometry>
        </mxCell>
        <mxCell id="6sF-m4O3xJEebA5fXuFb-20" value="" style="curved=1;endArrow=classic;html=1;" parent="1" edge="1">
          <mxGeometry width="50" height="50" relative="1" as="geometry">
            <mxPoint x="60" y="570" as="sourcePoint" />
            <mxPoint x="330" y="620" as="targetPoint" />
            <Array as="points">
              <mxPoint x="110" y="570" />
              <mxPoint x="160" y="620" />
            </Array>
          </mxGeometry>
        </mxCell>
        <mxCell id="6sF-m4O3xJEebA5fXuFb-21" value="null" style="text;html=1;strokeColor=none;fillColor=none;align=center;verticalAlign=middle;whiteSpace=wrap;rounded=0;" parent="1" vertex="1">
          <mxGeometry x="350" y="610" width="40" height="20" as="geometry" />
        </mxCell>
        <mxCell id="6sF-m4O3xJEebA5fXuFb-22" value="" style="curved=1;endArrow=classic;html=1;exitX=0.218;exitY=0.917;exitDx=0;exitDy=0;exitPerimeter=0;" parent="1" source="6sF-m4O3xJEebA5fXuFb-7" target="6sF-m4O3xJEebA5fXuFb-4" edge="1">
          <mxGeometry width="50" height="50" relative="1" as="geometry">
            <mxPoint x="310" y="380" as="sourcePoint" />
            <mxPoint x="360" y="330" as="targetPoint" />
            <Array as="points">
              <mxPoint x="140" y="470" />
              <mxPoint x="310" y="330" />
            </Array>
          </mxGeometry>
        </mxCell>
        <mxCell id="6sF-m4O3xJEebA5fXuFb-23" value="__proto__" style="text;html=1;strokeColor=none;fillColor=none;align=center;verticalAlign=middle;whiteSpace=wrap;rounded=0;" parent="1" vertex="1">
          <mxGeometry x="130" y="440" width="40" height="20" as="geometry" />
        </mxCell>
        <mxCell id="6sF-m4O3xJEebA5fXuFb-24" value="Object" style="ellipse;whiteSpace=wrap;html=1;fillColor=#d5e8d4;strokeColor=#82b366;" parent="1" vertex="1">
          <mxGeometry x="230" y="500" width="80" height="50" as="geometry" />
        </mxCell>
        <mxCell id="6sF-m4O3xJEebA5fXuFb-25" value="" style="endArrow=classic;html=1;entryX=0.038;entryY=0.68;entryDx=0;entryDy=0;entryPerimeter=0;" parent="1" target="6sF-m4O3xJEebA5fXuFb-24" edge="1">
          <mxGeometry width="50" height="50" relative="1" as="geometry">
            <mxPoint x="100" y="540" as="sourcePoint" />
            <mxPoint x="150" y="490" as="targetPoint" />
          </mxGeometry>
        </mxCell>
        <mxCell id="6sF-m4O3xJEebA5fXuFb-26" value="constuctor" style="text;html=1;strokeColor=none;fillColor=none;align=center;verticalAlign=middle;whiteSpace=wrap;rounded=0;" parent="1" vertex="1">
          <mxGeometry x="150" y="525" width="40" height="20" as="geometry" />
        </mxCell>
        <mxCell id="6sF-m4O3xJEebA5fXuFb-27" value="" style="curved=1;endArrow=classic;html=1;entryX=0.338;entryY=1.04;entryDx=0;entryDy=0;entryPerimeter=0;" parent="1" source="6sF-m4O3xJEebA5fXuFb-24" target="6sF-m4O3xJEebA5fXuFb-9" edge="1">
          <mxGeometry width="50" height="50" relative="1" as="geometry">
            <mxPoint x="310" y="380" as="sourcePoint" />
            <mxPoint x="520" y="210" as="targetPoint" />
            <Array as="points">
              <mxPoint x="480" y="525" />
              <mxPoint x="310" y="330" />
            </Array>
          </mxGeometry>
        </mxCell>
        <mxCell id="6sF-m4O3xJEebA5fXuFb-28" value="" style="curved=1;endArrow=classic;html=1;entryX=1;entryY=0.5;entryDx=0;entryDy=0;" parent="1" target="6sF-m4O3xJEebA5fXuFb-7" edge="1">
          <mxGeometry width="50" height="50" relative="1" as="geometry">
            <mxPoint x="470" y="170" as="sourcePoint" />
            <mxPoint x="520" y="120" as="targetPoint" />
            <Array as="points">
              <mxPoint x="420" y="160" />
              <mxPoint x="470" y="120" />
            </Array>
          </mxGeometry>
        </mxCell>
        <mxCell id="6sF-m4O3xJEebA5fXuFb-29" value="__proto__" style="text;html=1;strokeColor=none;fillColor=none;align=center;verticalAlign=middle;whiteSpace=wrap;rounded=0;" parent="1" vertex="1">
          <mxGeometry x="370" y="210" width="40" height="20" as="geometry" />
        </mxCell>
        <mxCell id="6sF-m4O3xJEebA5fXuFb-31" value="" style="endArrow=classic;html=1;entryX=0;entryY=0.5;entryDx=0;entryDy=0;" parent="1" target="6sF-m4O3xJEebA5fXuFb-9" edge="1">
          <mxGeometry width="50" height="50" relative="1" as="geometry">
            <mxPoint x="310" y="180" as="sourcePoint" />
            <mxPoint x="360" y="130" as="targetPoint" />
          </mxGeometry>
        </mxCell>
        <mxCell id="6sF-m4O3xJEebA5fXuFb-32" value="constuctor" style="text;html=1;strokeColor=none;fillColor=none;align=center;verticalAlign=middle;whiteSpace=wrap;rounded=0;" parent="1" vertex="1">
          <mxGeometry x="340" y="160" width="40" height="20" as="geometry" />
        </mxCell>
        <mxCell id="YbEJVO23RCFZGLzoGGtg-1" value="" style="endArrow=classic;html=1;exitX=0.388;exitY=0.96;exitDx=0;exitDy=0;exitPerimeter=0;" edge="1" parent="1" source="6sF-m4O3xJEebA5fXuFb-5" target="6sF-m4O3xJEebA5fXuFb-7">
          <mxGeometry width="50" height="50" relative="1" as="geometry">
            <mxPoint x="270" y="390" as="sourcePoint" />
            <mxPoint x="320" y="340" as="targetPoint" />
          </mxGeometry>
        </mxCell>
        <mxCell id="YbEJVO23RCFZGLzoGGtg-2" value="__proto__" style="text;html=1;strokeColor=none;fillColor=none;align=center;verticalAlign=middle;whiteSpace=wrap;rounded=0;" vertex="1" parent="1">
          <mxGeometry x="200" y="220" width="40" height="20" as="geometry" />
        </mxCell>
      </root>
    </mxGraphModel>
  </diagram>
</mxfile>
